# xmcd CD database file generated by Grip 3.2.0
# 
# Track frame offsets:
#       150
#       11057
#       21825
#       33882
#       43615
#       57730
#       72505
#       84112
#       95112
#       106932
#       117550
#       129400
#       139510
#       149032
#       158572
#       167235
#       176375
#       187705
#       199007
#       209747
#       220440
#       231020
#       244142
#       256080
#       266270
# 
# Disc length: 3673 seconds
# 
# Revision: 5
# Processed by: cddbd v1.5.2PL0 Copyright (c) Steve Scherf et al.
# Submitted via: Grip 3.2.0
# 
DISCID=670e5719
DTITLE=Tennessee Ernie Ford - Sixteen Tons
DYEAR=1990
DGENRE=Blues
TTITLE0=Milk 'Em In The Morning Blues
TTITLE1=Country Junction
TTITLE2=Smoky Mountain Boogie
TTITLE3=Anticipation Blues
TTITLE4=Mule Train
TTITLE5=Cry Of The Wild Goose
TTITLE6=My Hobby
TTITLE7=Feed `Em In The Morning Blues
TTITLE8=Shot Gun Boogie
TTITLE9=Tailor Made Woman
TTITLE10=You´re My Sugar (& Kay Star)
TTITLE11=Rock City Boogie
TTITLE12=Kissin´ Bug Boogie
TTITLE13=Hey, Good Lookin´ (& Hellen O´Connell)
TTITLE14=Hambone (& Bucky Tibbes)
TTITLE15=Everybody´s Got A Girl But Me
TTITLE16=Snow Shoe Thompson
TTITLE17=Blackberry Boogie
TTITLE18=Hey, Mr. Cotton Picker
TTITLE19=Kiss Me Big
TTITLE20=Catfish Boogie
TTITLE21=Ballad Of Davy Crocket
TTITLE22=Sixten Tons
TTITLE23=The Rovin´ Gambler
TTITLE24=Blackeyed Susie
EXTD=YEAR: 1990
EXTT0=
EXTT1=
EXTT2=
EXTT3=
EXTT4=
EXTT5=
EXTT6=
EXTT7=
EXTT8=
EXTT9=
EXTT10=
EXTT11=
EXTT12=
EXTT13=
EXTT14=
EXTT15=
EXTT16=
EXTT17=
EXTT18=
EXTT19=
EXTT20=
EXTT21=
EXTT22=
EXTT23=
EXTT24=
PLAYORDER=
